<mxfile host="app.diagrams.net" modified="2023-11-13T12:28:22.651Z" agent="Mozilla/5.0 (Windows NT 10.0; Win64; x64) AppleWebKit/537.36 (KHTML, like Gecko) Chrome/119.0.0.0 Safari/537.36" etag="xo5MmFHr8Mc6wvg9W3Ut" version="22.1.0" type="device">
  <diagram name="Page-1" id="LtKpZWJZuAOeqZMCd9f_">
    <mxGraphModel dx="2954" dy="1106" grid="0" gridSize="10" guides="1" tooltips="1" connect="1" arrows="1" fold="1" page="1" pageScale="1" pageWidth="1169" pageHeight="827" background="#050505" math="0" shadow="0">
      <root>
        <mxCell id="0" />
        <mxCell id="1" parent="0" />
        <mxCell id="GqyXBotOk6QTrNFv4olp-1" value="&lt;pre style=&quot;font-size: 15px;&quot;&gt;&lt;font style=&quot;font-size: 15px;&quot; face=&quot;Lucida Console&quot;&gt;studentsID (primary key)&lt;br&gt;firstName&lt;br&gt;lastName&lt;br&gt;email&lt;br&gt;phone&lt;/font&gt;&lt;/pre&gt;" style="rounded=0;whiteSpace=wrap;html=1;" vertex="1" parent="1">
          <mxGeometry x="72" y="77" width="253" height="188" as="geometry" />
        </mxCell>
        <mxCell id="GqyXBotOk6QTrNFv4olp-2" value="&lt;pre style=&quot;border-color: var(--border-color); font-size: 15px;&quot;&gt;&lt;font style=&quot;border-color: var(--border-color);&quot; face=&quot;Lucida Console&quot;&gt;mentorID (primary key)&lt;br style=&quot;border-color: var(--border-color);&quot;&gt;firstName&lt;br style=&quot;border-color: var(--border-color);&quot;&gt;lastName&lt;br style=&quot;border-color: var(--border-color);&quot;&gt;mentorEmail(PK)&lt;br style=&quot;border-color: var(--border-color);&quot;&gt;phone&lt;/font&gt;&lt;/pre&gt;" style="rounded=0;whiteSpace=wrap;html=1;" vertex="1" parent="1">
          <mxGeometry x="458" y="79" width="253" height="188" as="geometry" />
        </mxCell>
        <mxCell id="GqyXBotOk6QTrNFv4olp-31" value="" style="edgeStyle=orthogonalEdgeStyle;rounded=0;orthogonalLoop=1;jettySize=auto;html=1;" edge="1" parent="1" source="GqyXBotOk6QTrNFv4olp-3" target="GqyXBotOk6QTrNFv4olp-20">
          <mxGeometry relative="1" as="geometry" />
        </mxCell>
        <mxCell id="GqyXBotOk6QTrNFv4olp-3" value="&lt;pre style=&quot;border-color: var(--border-color); font-size: 15px;&quot;&gt;&lt;font style=&quot;border-color: var(--border-color);&quot; face=&quot;Lucida Console&quot;&gt;classID (primary key)&lt;br style=&quot;border-color: var(--border-color);&quot;&gt;className&lt;br style=&quot;border-color: var(--border-color);&quot;&gt;Topics(primary key)&lt;br style=&quot;border-color: var(--border-color);&quot;&gt;mentorID(foreign key)&lt;br style=&quot;border-color: var(--border-color);&quot;&gt;time(primary key)&lt;/font&gt;&lt;/pre&gt;" style="rounded=0;whiteSpace=wrap;html=1;" vertex="1" parent="1">
          <mxGeometry x="828" y="77" width="253" height="188" as="geometry" />
        </mxCell>
        <mxCell id="GqyXBotOk6QTrNFv4olp-39" value="" style="edgeStyle=orthogonalEdgeStyle;rounded=0;orthogonalLoop=1;jettySize=auto;html=1;" edge="1" parent="1" source="GqyXBotOk6QTrNFv4olp-4" target="GqyXBotOk6QTrNFv4olp-38">
          <mxGeometry relative="1" as="geometry" />
        </mxCell>
        <mxCell id="GqyXBotOk6QTrNFv4olp-4" value="&lt;pre style=&quot;border-color: var(--border-color); font-size: 15px;&quot;&gt;&lt;font style=&quot;border-color: var(--border-color);&quot; face=&quot;Lucida Console&quot;&gt;taskID (primary key)&lt;br style=&quot;border-color: var(--border-color);&quot;&gt;topics (foreign key )&lt;br style=&quot;border-color: var(--border-color);&quot;&gt;studentsID(FK)&lt;br style=&quot;border-color: var(--border-color);&quot;&gt;classID(FK)&lt;br style=&quot;border-color: var(--border-color);&quot;&gt;status&lt;/font&gt;&lt;/pre&gt;" style="rounded=0;whiteSpace=wrap;html=1;" vertex="1" parent="1">
          <mxGeometry x="455" y="335" width="253" height="188" as="geometry" />
        </mxCell>
        <mxCell id="GqyXBotOk6QTrNFv4olp-5" value="&lt;pre style=&quot;border-color: var(--border-color); font-size: 15px;&quot;&gt;&lt;font style=&quot;border-color: var(--border-color);&quot; face=&quot;Lucida Console&quot;&gt;batchID (primary key)&lt;br style=&quot;border-color: var(--border-color);&quot;&gt;batchName&lt;br style=&quot;border-color: var(--border-color);&quot;&gt;courseDuration&lt;br style=&quot;border-color: var(--border-color);&quot;&gt;mentorID(FK)&lt;br style=&quot;border-color: var(--border-color);&quot;&gt;mentorEmail(FK)&lt;/font&gt;&lt;/pre&gt;" style="rounded=0;whiteSpace=wrap;html=1;" vertex="1" parent="1">
          <mxGeometry x="83" y="335" width="253" height="188" as="geometry" />
        </mxCell>
        <mxCell id="GqyXBotOk6QTrNFv4olp-6" value="&lt;pre style=&quot;border-color: var(--border-color); font-size: 15px;&quot;&gt;&lt;font style=&quot;border-color: var(--border-color);&quot; face=&quot;Lucida Console&quot;&gt;&lt;br style=&quot;border-color: var(--border-color);&quot;&gt;studentsID(foreign key)&lt;br style=&quot;border-color: var(--border-color);&quot;&gt;mentorID(foreign key)&lt;br style=&quot;border-color: var(--border-color);&quot;&gt;topics (FK)&lt;br style=&quot;border-color: var(--border-color);&quot;&gt;time(FK)&lt;/font&gt;&lt;/pre&gt;" style="rounded=0;whiteSpace=wrap;html=1;" vertex="1" parent="1">
          <mxGeometry x="839" y="335" width="253" height="188" as="geometry" />
        </mxCell>
        <mxCell id="GqyXBotOk6QTrNFv4olp-7" value="&lt;pre style=&quot;border-color: var(--border-color); font-size: 15px;&quot;&gt;&lt;font style=&quot;border-color: var(--border-color);&quot; face=&quot;Lucida Console&quot;&gt;qureyID(primary key)&lt;br style=&quot;border-color: var(--border-color);&quot;&gt;studentsID(fk)&lt;br style=&quot;border-color: var(--border-color);&quot;&gt;taskID(fk)&lt;br style=&quot;border-color: var(--border-color);&quot;&gt;topics(fk)&lt;br style=&quot;border-color: var(--border-color);&quot;&gt;language&lt;/font&gt;&lt;/pre&gt;" style="rounded=0;whiteSpace=wrap;html=1;" vertex="1" parent="1">
          <mxGeometry x="458" y="600" width="253" height="188" as="geometry" />
        </mxCell>
        <mxCell id="GqyXBotOk6QTrNFv4olp-15" value="&lt;font color=&quot;#00cc00&quot; style=&quot;font-size: 15px;&quot;&gt;students (table)&lt;/font&gt;" style="text;html=1;align=center;verticalAlign=middle;resizable=0;points=[];autosize=1;strokeColor=none;fillColor=none;fontColor=#B60DFF;strokeWidth=1;fontStyle=1;fontSize=15;" vertex="1" parent="1">
          <mxGeometry x="136" y="50" width="130" height="30" as="geometry" />
        </mxCell>
        <mxCell id="GqyXBotOk6QTrNFv4olp-17" value="&lt;font color=&quot;#00cc00&quot; style=&quot;font-size: 15px;&quot;&gt;mentor (table)&lt;/font&gt;" style="text;html=1;align=center;verticalAlign=middle;resizable=0;points=[];autosize=1;strokeColor=none;fillColor=none;fontColor=#B60DFF;strokeWidth=1;fontStyle=1;fontSize=15;" vertex="1" parent="1">
          <mxGeometry x="515" y="54" width="118" height="30" as="geometry" />
        </mxCell>
        <mxCell id="GqyXBotOk6QTrNFv4olp-18" value="&lt;font color=&quot;#00cc00&quot; style=&quot;font-size: 15px;&quot;&gt;class(table)&lt;/font&gt;" style="text;html=1;align=center;verticalAlign=middle;resizable=0;points=[];autosize=1;strokeColor=none;fillColor=none;fontColor=#B60DFF;strokeWidth=1;fontStyle=1;fontSize=15;" vertex="1" parent="1">
          <mxGeometry x="919" y="50" width="101" height="30" as="geometry" />
        </mxCell>
        <mxCell id="GqyXBotOk6QTrNFv4olp-34" value="" style="edgeStyle=orthogonalEdgeStyle;rounded=0;orthogonalLoop=1;jettySize=auto;html=1;" edge="1" parent="1" source="GqyXBotOk6QTrNFv4olp-20" target="GqyXBotOk6QTrNFv4olp-3">
          <mxGeometry relative="1" as="geometry" />
        </mxCell>
        <mxCell id="GqyXBotOk6QTrNFv4olp-20" value="&lt;font color=&quot;#00cc00&quot; style=&quot;font-size: 15px;&quot;&gt;zenPortal (table)&lt;/font&gt;" style="text;html=1;align=center;verticalAlign=middle;resizable=0;points=[];autosize=1;strokeColor=none;fillColor=none;fontColor=#B60DFF;strokeWidth=1;fontStyle=1;fontSize=15;" vertex="1" parent="1">
          <mxGeometry x="902" y="306" width="135" height="30" as="geometry" />
        </mxCell>
        <mxCell id="GqyXBotOk6QTrNFv4olp-21" value="&lt;font color=&quot;#00cc00&quot; style=&quot;font-size: 15px;&quot;&gt;dilyTask (table)&lt;/font&gt;" style="text;html=1;align=center;verticalAlign=middle;resizable=0;points=[];autosize=1;strokeColor=none;fillColor=none;fontColor=#B60DFF;strokeWidth=1;fontStyle=1;fontSize=15;" vertex="1" parent="1">
          <mxGeometry x="511" y="310" width="126" height="30" as="geometry" />
        </mxCell>
        <mxCell id="GqyXBotOk6QTrNFv4olp-22" value="&lt;font color=&quot;#00cc00&quot; style=&quot;font-size: 15px;&quot;&gt;batches (table)&lt;/font&gt;" style="text;html=1;align=center;verticalAlign=middle;resizable=0;points=[];autosize=1;strokeColor=none;fillColor=none;fontColor=#B60DFF;strokeWidth=1;fontStyle=1;fontSize=15;" vertex="1" parent="1">
          <mxGeometry x="140" y="306" width="124" height="30" as="geometry" />
        </mxCell>
        <mxCell id="GqyXBotOk6QTrNFv4olp-23" value="&lt;font color=&quot;#00cc00&quot; style=&quot;font-size: 15px;&quot;&gt;query (table)&lt;/font&gt;" style="text;html=1;align=center;verticalAlign=middle;resizable=0;points=[];autosize=1;strokeColor=none;fillColor=none;fontColor=#B60DFF;strokeWidth=1;fontStyle=1;fontSize=15;" vertex="1" parent="1">
          <mxGeometry x="533" y="570" width="108" height="30" as="geometry" />
        </mxCell>
        <mxCell id="GqyXBotOk6QTrNFv4olp-24" value="" style="endArrow=classic;html=1;rounded=0;exitX=1;exitY=1;exitDx=0;exitDy=0;entryX=0;entryY=0;entryDx=0;entryDy=0;fontColor=#f20707;fillColor=#fa6800;strokeColor=#C73500;strokeWidth=2;" edge="1" parent="1" source="GqyXBotOk6QTrNFv4olp-1" target="GqyXBotOk6QTrNFv4olp-7">
          <mxGeometry width="50" height="50" relative="1" as="geometry">
            <mxPoint x="387" y="402" as="sourcePoint" />
            <mxPoint x="437" y="352" as="targetPoint" />
          </mxGeometry>
        </mxCell>
        <mxCell id="GqyXBotOk6QTrNFv4olp-25" value="" style="endArrow=classic;html=1;rounded=0;exitX=1;exitY=1;exitDx=0;exitDy=0;entryX=0;entryY=0;entryDx=0;entryDy=0;fontColor=#f20707;strokeColor=#C73500;fillColor=#fa6800;strokeWidth=2;" edge="1" parent="1" source="GqyXBotOk6QTrNFv4olp-1" target="GqyXBotOk6QTrNFv4olp-6">
          <mxGeometry width="50" height="50" relative="1" as="geometry">
            <mxPoint x="336" y="250" as="sourcePoint" />
            <mxPoint x="466" y="320" as="targetPoint" />
          </mxGeometry>
        </mxCell>
        <mxCell id="GqyXBotOk6QTrNFv4olp-26" value="" style="endArrow=classic;html=1;rounded=0;exitX=1;exitY=0.5;exitDx=0;exitDy=0;fontColor=#f20707;strokeColor=#C73500;entryX=0;entryY=0.5;entryDx=0;entryDy=0;fillColor=#fa6800;strokeWidth=2;" edge="1" parent="1" source="GqyXBotOk6QTrNFv4olp-2" target="GqyXBotOk6QTrNFv4olp-3">
          <mxGeometry width="50" height="50" relative="1" as="geometry">
            <mxPoint x="711" y="167" as="sourcePoint" />
            <mxPoint x="834" y="176" as="targetPoint" />
          </mxGeometry>
        </mxCell>
        <mxCell id="GqyXBotOk6QTrNFv4olp-27" value="" style="endArrow=classic;html=1;rounded=0;fontColor=#f20707;strokeColor=#C73500;fillColor=#fa6800;strokeWidth=2;" edge="1" parent="1">
          <mxGeometry width="50" height="50" relative="1" as="geometry">
            <mxPoint x="965" y="268" as="sourcePoint" />
            <mxPoint x="965" y="314" as="targetPoint" />
          </mxGeometry>
        </mxCell>
        <mxCell id="GqyXBotOk6QTrNFv4olp-28" value="" style="endArrow=classic;html=1;rounded=0;exitX=0;exitY=1;exitDx=0;exitDy=0;entryX=1;entryY=0;entryDx=0;entryDy=0;fontColor=#f20707;strokeColor=#005700;fillColor=#008a00;strokeWidth=2;" edge="1" parent="1" source="GqyXBotOk6QTrNFv4olp-2" target="GqyXBotOk6QTrNFv4olp-5">
          <mxGeometry width="50" height="50" relative="1" as="geometry">
            <mxPoint x="144.5" y="695" as="sourcePoint" />
            <mxPoint x="274.5" y="765" as="targetPoint" />
          </mxGeometry>
        </mxCell>
        <mxCell id="GqyXBotOk6QTrNFv4olp-29" value="" style="endArrow=classic;html=1;rounded=0;exitX=0.5;exitY=1;exitDx=0;exitDy=0;entryX=0.441;entryY=0.269;entryDx=0;entryDy=0;fontColor=#f20707;strokeColor=#005700;entryPerimeter=0;fillColor=#008a00;strokeWidth=2;" edge="1" parent="1" source="GqyXBotOk6QTrNFv4olp-4" target="GqyXBotOk6QTrNFv4olp-23">
          <mxGeometry width="50" height="50" relative="1" as="geometry">
            <mxPoint x="111" y="705" as="sourcePoint" />
            <mxPoint x="241" y="775" as="targetPoint" />
          </mxGeometry>
        </mxCell>
        <mxCell id="GqyXBotOk6QTrNFv4olp-30" value="" style="endArrow=classic;html=1;rounded=0;exitX=1;exitY=0.5;exitDx=0;exitDy=0;fontColor=#f20707;strokeColor=#C73500;entryX=0.25;entryY=0;entryDx=0;entryDy=0;fillColor=#fa6800;strokeWidth=2;" edge="1" parent="1" source="GqyXBotOk6QTrNFv4olp-2" target="GqyXBotOk6QTrNFv4olp-6">
          <mxGeometry width="50" height="50" relative="1" as="geometry">
            <mxPoint x="711" y="187" as="sourcePoint" />
            <mxPoint x="828" y="185" as="targetPoint" />
          </mxGeometry>
        </mxCell>
        <mxCell id="GqyXBotOk6QTrNFv4olp-32" value="" style="endArrow=classic;html=1;rounded=0;fontColor=#f20707;strokeColor=#C73500;entryX=1;entryY=0.5;entryDx=0;entryDy=0;exitX=0.534;exitY=1;exitDx=0;exitDy=0;exitPerimeter=0;fillColor=#fa6800;strokeWidth=2;" edge="1" parent="1" source="GqyXBotOk6QTrNFv4olp-3" target="GqyXBotOk6QTrNFv4olp-4">
          <mxGeometry width="50" height="50" relative="1" as="geometry">
            <mxPoint x="905" y="265" as="sourcePoint" />
            <mxPoint x="905" y="311" as="targetPoint" />
          </mxGeometry>
        </mxCell>
        <mxCell id="GqyXBotOk6QTrNFv4olp-33" value="&lt;font color=&quot;#9999ff&quot;&gt;One to many conditions &lt;br&gt;&lt;br&gt;&lt;br&gt;&lt;br&gt;&lt;br&gt;One to One Condtitions&lt;br&gt;&lt;/font&gt;" style="text;html=1;align=center;verticalAlign=middle;resizable=0;points=[];autosize=1;strokeColor=none;fillColor=none;" vertex="1" parent="1">
          <mxGeometry x="891" y="690" width="144" height="98" as="geometry" />
        </mxCell>
        <mxCell id="GqyXBotOk6QTrNFv4olp-35" value="" style="endArrow=classic;html=1;rounded=0;exitX=1;exitY=0.5;exitDx=0;exitDy=0;fontColor=#f20707;strokeColor=#C73500;fillColor=#fa6800;strokeWidth=2;" edge="1" parent="1">
          <mxGeometry width="50" height="50" relative="1" as="geometry">
            <mxPoint x="1046" y="702" as="sourcePoint" />
            <mxPoint x="1105" y="702" as="targetPoint" />
          </mxGeometry>
        </mxCell>
        <mxCell id="GqyXBotOk6QTrNFv4olp-37" value="" style="endArrow=classic;html=1;rounded=0;exitX=1;exitY=0.5;exitDx=0;exitDy=0;fontColor=#f20707;strokeColor=#005700;fillColor=#008a00;strokeWidth=2;" edge="1" parent="1">
          <mxGeometry width="50" height="50" relative="1" as="geometry">
            <mxPoint x="1049" y="775" as="sourcePoint" />
            <mxPoint x="1108" y="775" as="targetPoint" />
          </mxGeometry>
        </mxCell>
        <mxCell id="GqyXBotOk6QTrNFv4olp-38" value="&lt;pre style=&quot;border-color: var(--border-color); font-size: 15px;&quot;&gt;&lt;font style=&quot;border-color: var(--border-color);&quot; face=&quot;Lucida Console&quot;&gt;taskID (primary key)&lt;br style=&quot;border-color: var(--border-color);&quot;&gt;topics (foreign key )&lt;br style=&quot;border-color: var(--border-color);&quot;&gt;studentsID(FK)&lt;br style=&quot;border-color: var(--border-color);&quot;&gt;classID(FK)&lt;br style=&quot;border-color: var(--border-color);&quot;&gt;status&lt;/font&gt;&lt;/pre&gt;" style="rounded=0;whiteSpace=wrap;html=1;" vertex="1" parent="1">
          <mxGeometry x="455" y="603" width="253" height="188" as="geometry" />
        </mxCell>
      </root>
    </mxGraphModel>
  </diagram>
</mxfile>
